<?xml version="1.0" encoding="UTF-8"?>
<svg id="Layer_2" data-name="Layer 2" xmlns="http://www.w3.org/2000/svg" xmlns:xlink="http://www.w3.org/1999/xlink" viewBox="0 0 180 180">
  <defs>
    <style>
      .cls-1 {
        fill: #fff;
      }

      .cls-2 {
        fill: #00b7b5;
      }

      .cls-3 {
        fill: url(#linear-gradient);
      }
    </style>
    <linearGradient id="linear-gradient" x1=".53" y1="141.28" x2="176" y2="40.71" gradientUnits="userSpaceOnUse">
      <stop offset="0" stop-color="#0491ad"/>
      <stop offset=".49" stop-color="#006d82"/>
      <stop offset="1" stop-color="#04506e"/>
    </linearGradient>
  </defs>
  <g id="Layer_1-2" data-name="Layer 1">
    <g>
      <rect class="cls-3" x="0" y="0" width="180" height="180" rx="90" ry="90"/>
      <g>
        <path class="cls-1" d="M65.43,66.06c0,4.03-3.27,7.3-7.3,7.3s-7.3-3.27-7.3-7.3,3.27-7.3,7.3-7.3,7.3,3.27,7.3,7.3h0Z"/>
        <path class="cls-2" d="M43.22,66.06c0,4.03-3.27,7.3-7.3,7.3s-7.3-3.27-7.3-7.3,3.27-7.3,7.3-7.3,7.3,3.27,7.3,7.3h0Z"/>
        <path class="cls-1" d="M67.43,104.49s.03.46.03.56c0,2.53,0,4.39-.01,5.58-.04,3.74-1.7,6.85-4.55,9.2-1.7,1.4-3.67,2.24-5.91,2.52-.41.05-1.07.08-1.99.08-3.36,0-5.17,0-5.42,0-.07,0-.12-.05-.12-.12,0-9.06,0-19.43,0-31.11,0-1.89.06-3.17.17-3.83.51-2.95,2.13-5.53,4.47-7.4,1.38-1.11,3-1.86,4.86-2.24.8-.17,2.07-.25,3.82-.24,2.02,0,3.55.01,4.58.02.05,0,.09.04.09.1v9.68s0,0,0,0c0,0,.01,0,.01,0,.03-.09.04-.21.02-.34-.02-.12.08-.22.19-.22h5.17s.06-.03.06-.06c.04-.82.06-1.58.16-2.35.66-5.06,3.41-9.33,7.48-12.35,2.8-2.08,6.02-3.19,9.64-3.33,2.26-.09,4.42.21,6.47.91,2.75.93,5.17,2.47,7.25,4.61,2.17,2.24,3.66,4.89,4.44,7.94.02.06-.04.12-.1.11-.11-.02-.23-.03-.36-.03-3.34.01-8.61.01-15.82,0-1.1,0-1.85.05-2.25.17-1.92.54-3.33,2.28-3.33,4.34,0,.03.02.05.05.05,5.67,0,15.93,0,21.86,0,2.1,0-.59.72-.12,2.98.09.42.13.89.13,1.43,0,1.36,0,4.49,0,9.38,0,1.02-.31,2.18-1,2.93-.98,1.06-2.34,1.2-3.75,1.2-21.43,0-33.41,0-35.94,0-.13,0-.21-.05-.24-.13-.01-.03-.05-.03-.06,0h0Z"/>
        <path class="cls-1" d="M125.36,86.71s.08-.04.08-.08c-.01-.93.08-1.95.26-3.04.68-4.12,2.85-7.69,5.94-10.47,2.97-2.66,6.48-4.11,10.54-4.37,4.26-.27,8.41.81,11.85,3.39,2.56,1.92,4.64,4.4,5.94,7.31.37.82.68,1.72.93,2.68.09.35.2.93.33,1.75.26,1.61.26,3.4.11,4.91-.47,4.74-2.77,8.74-6.38,11.77-3.27,2.75-7.08,4.13-11.42,4.16-.45,0-7.7,0-21.74,0-2.21,0-3.57-.04-4.09-.14-1.45-.25-2.73-.7-3.85-1.33-1.7-.96-3.13-2.29-4.26-3.99-1.3-1.94-1.94-4.12-1.93-6.55.01-1.73.01-3.71,0-5.92,0-.05.04-.09.09-.09h17.59M143.42,91.17c2.45,0,4.44-1.99,4.44-4.44s-1.99-4.44-4.44-4.44-4.44,1.99-4.44,4.44,1.99,4.44,4.44,4.44h0Z"/>
        <path class="cls-1" d="M44.92,99.99c0,5.84,0,9.36,0,10.57,0,2.48-.72,4.73-2.13,6.73-2.23,3.16-5.64,5.09-9.57,5.13-2.1.02-4.16.03-6.18,0-.06,0-.11-.05-.11-.11,0-.74,0-8.2,0-22.39,0-5.84,0-9.36,0-10.57,0-2.48.72-4.73,2.13-6.73,2.23-3.16,5.64-5.09,9.57-5.13,2.1-.02,4.16-.02,6.18,0,.06,0,.11.05.11.11,0,.74,0,8.2,0,22.39h0Z"/>
      </g>
    </g>
  </g>
</svg>