<?xml version="1.0" encoding="UTF-8"?>
<svg id="Layer_2" data-name="Layer 2" xmlns="http://www.w3.org/2000/svg" xmlns:xlink="http://www.w3.org/1999/xlink" viewBox="0 0 32 32">
  <defs>
    <style>
      .cls-1 {
        fill: #fff;
      }

      .cls-2 {
        fill: #00b7b5;
      }

      .cls-3 {
        fill: url(#linear-gradient);
      }
    </style>
    <linearGradient id="linear-gradient" x1=".09" y1="25.12" x2="31.29" y2="7.24" gradientUnits="userSpaceOnUse">
      <stop offset="0" stop-color="#0491ad"/>
      <stop offset=".49" stop-color="#006d82"/>
      <stop offset="1" stop-color="#04506e"/>
    </linearGradient>
  </defs>
  <g id="Layer_1-2" data-name="Layer 1">
    <g>
      <rect class="cls-3" x="0" y="0" width="32" height="32" rx="16" ry="16"/>
      <g>
        <path class="cls-1" d="M11.63,11.74c0,.72-.58,1.3-1.3,1.3s-1.3-.58-1.3-1.3.58-1.3,1.3-1.3,1.3.58,1.3,1.3h0Z"/>
        <path class="cls-2" d="M7.68,11.74c0,.72-.58,1.3-1.3,1.3s-1.3-.58-1.3-1.3.58-1.3,1.3-1.3,1.3.58,1.3,1.3h0Z"/>
        <path class="cls-1" d="M11.99,18.58s0,.08,0,.1c0,.45,0,.78,0,.99,0,.67-.3,1.22-.81,1.64-.3.25-.65.4-1.05.45-.07,0-.19.01-.35.01-.6,0-.92,0-.96,0-.01,0-.02,0-.02-.02,0-1.61,0-3.45,0-5.53,0-.34.01-.56.03-.68.09-.52.38-.98.79-1.32.25-.2.53-.33.86-.4.14-.03.37-.04.68-.04.36,0,.63,0,.81,0,0,0,.02,0,.02.02v1.72s0,0,0,0c0,0,0,0,0,0,0-.02,0-.04,0-.06,0-.02.01-.04.03-.04h.92s.01,0,.01-.01c0-.15.01-.28.03-.42.12-.9.61-1.66,1.33-2.19.5-.37,1.07-.57,1.71-.59.4-.02.79.04,1.15.16.49.17.92.44,1.29.82.39.4.65.87.79,1.41,0,.01,0,.02-.02.02-.02,0-.04,0-.06,0-.59,0-1.53,0-2.81,0-.2,0-.33,0-.4.03-.34.1-.59.4-.59.77,0,0,0,0,0,0,1.01,0,2.83,0,3.89,0,.37,0-.1.13-.02.53.02.07.02.16.02.25,0,.24,0,.8,0,1.67,0,.18-.05.39-.18.52-.17.19-.42.21-.67.21-3.81,0-5.94,0-6.39,0-.02,0-.04,0-.04-.02,0,0,0,0-.01,0h0Z"/>
        <path class="cls-1" d="M22.29,15.42s.01,0,.01-.01c0-.17.01-.35.05-.54.12-.73.51-1.37,1.06-1.86.53-.47,1.15-.73,1.87-.78.76-.05,1.5.14,2.11.6.46.34.83.78,1.06,1.3.07.15.12.3.17.48.02.06.04.17.06.31.05.29.05.61.02.87-.08.84-.49,1.55-1.13,2.09-.58.49-1.26.73-2.03.74-.08,0-1.37,0-3.87,0-.39,0-.64,0-.73-.02-.26-.04-.49-.12-.68-.24-.3-.17-.56-.41-.76-.71-.23-.35-.35-.73-.34-1.16,0-.31,0-.66,0-1.05,0,0,0-.02.02-.02h3.13M25.5,16.21c.44,0,.79-.35.79-.79s-.35-.79-.79-.79-.79.35-.79.79.35.79.79.79h0Z"/>
        <path class="cls-1" d="M7.99,17.78c0,1.04,0,1.66,0,1.88,0,.44-.13.84-.38,1.2-.4.56-1,.9-1.7.91-.37,0-.74,0-1.1,0-.01,0-.02,0-.02-.02,0-.13,0-1.46,0-3.98,0-1.04,0-1.66,0-1.88,0-.44.13-.84.38-1.2.4-.56,1-.9,1.7-.91.37,0,.74,0,1.1,0,.01,0,.02,0,.02.02,0,.13,0,1.46,0,3.98h0Z"/>
      </g>
    </g>
  </g>
</svg>