<?xml version="1.0" encoding="UTF-8"?>
<svg id="Layer_2" data-name="Layer 2" xmlns="http://www.w3.org/2000/svg" viewBox="0 0 32 15.15">
  <defs>
    <style>
      .cls-1 {
        fill: #00b7b5;
      }

      .cls-2 {
        fill: #006c81;
      }
    </style>
  </defs>
  <g id="Layer_1-2" data-name="Layer 1">
    <g>
      <path class="cls-2" d="M9.16,1.74c0,.96-.78,1.74-1.74,1.74s-1.74-.78-1.74-1.74.78-1.74,1.74-1.74,1.74.78,1.74,1.74h0Z"/>
      <path class="cls-1" d="M3.88,1.74c0,.96-.78,1.74-1.74,1.74S.41,2.69.41,1.74s.78-1.74,1.74-1.74,1.74.78,1.74,1.74h0Z"/>
      <path class="cls-2" d="M9.64,10.88s0,.11,0,.13c0,.6,0,1.04,0,1.33,0,.89-.4,1.63-1.08,2.19-.4.33-.87.53-1.41.6-.1.01-.25.02-.47.02-.8,0-1.23,0-1.29,0-.02,0-.03-.01-.03-.03,0-2.16,0-4.62,0-7.4,0-.45.01-.75.04-.91.12-.7.51-1.32,1.06-1.76.33-.26.71-.44,1.16-.53.19-.04.49-.06.91-.06.48,0,.84,0,1.09,0,.01,0,.02.01.02.02v2.3s0,0,0,0c0,0,0,0,0,0,0-.02,0-.05,0-.08,0-.03.02-.05.05-.05h1.23s.01,0,.02-.01c0-.2.01-.38.04-.56.16-1.2.81-2.22,1.78-2.94.67-.49,1.43-.76,2.29-.79.54-.02,1.05.05,1.54.22.66.22,1.23.59,1.72,1.1.52.53.87,1.16,1.06,1.89,0,.01,0,.03-.02.02-.03,0-.05,0-.09,0-.79,0-2.05,0-3.76,0-.26,0-.44.01-.54.04-.46.13-.79.54-.79,1.03,0,0,0,.01.01.01,1.35,0,3.79,0,5.2,0,.5,0-.14.17-.03.71.02.1.03.21.03.34,0,.32,0,1.07,0,2.23,0,.24-.07.52-.24.7-.23.25-.56.29-.89.29-5.1,0-7.95,0-8.55,0-.03,0-.05-.01-.06-.03,0,0-.01,0-.01,0h0Z"/>
      <path class="cls-2" d="M23.41,6.65s.02,0,.02-.02c0-.22.02-.46.06-.72.16-.98.68-1.83,1.41-2.49.71-.63,1.54-.98,2.51-1.04,1.01-.06,2,.19,2.82.81.61.46,1.1,1.05,1.41,1.74.09.2.16.41.22.64.02.08.05.22.08.42.06.38.06.81.03,1.17-.11,1.13-.66,2.08-1.52,2.8-.78.65-1.68.98-2.72.99-.11,0-1.83,0-5.17,0-.53,0-.85-.01-.97-.03-.34-.06-.65-.17-.92-.32-.41-.23-.74-.55-1.01-.95-.31-.46-.46-.98-.46-1.56,0-.41,0-.88,0-1.41,0-.01,0-.02.02-.02h4.18M27.71,7.71c.58,0,1.06-.47,1.06-1.06s-.47-1.06-1.06-1.06-1.06.47-1.06,1.06.47,1.06,1.06,1.06h0Z"/>
      <path class="cls-2" d="M4.28,9.81c0,1.39,0,2.23,0,2.51,0,.59-.17,1.12-.51,1.6-.53.75-1.34,1.21-2.28,1.22-.5,0-.99,0-1.47,0-.01,0-.03-.01-.03-.03,0-.18,0-1.95,0-5.33,0-1.39,0-2.23,0-2.51,0-.59.17-1.12.51-1.6.53-.75,1.34-1.21,2.28-1.22.5,0,.99,0,1.47,0,.01,0,.03.01.03.03,0,.18,0,1.95,0,5.33h0Z"/>
    </g>
  </g>
</svg>