<svg width="1600" height="360" viewBox="0 0 1600 360" fill="none" xmlns="http://www.w3.org/2000/svg">
  <rect width="1600" height="360" fill="#385B36"/>
  <g opacity="0.95">
    <path d="M0 57L109 36L221 80L336 48L470 85L610 57L766 96L921 54L1079 84L1250 40L1401 78L1600 26V0H0V57Z" fill="#708A4F"/>
    <path d="M0 135L130 97L252 146L407 103L566 152L713 110L856 155L1025 103L1182 145L1343 100L1494 136L1600 110V54L1401 106L1250 68L1079 112L921 82L766 124L610 87L470 117L336 80L221 112L109 69L0 91V135Z" fill="#89A05D"/>
    <path d="M0 208L131 170L252 216L415 165L553 219L726 173L858 214L1020 168L1185 217L1340 173L1497 204L1600 182V126L1494 152L1343 116L1182 161L1025 119L856 170L713 127L566 173L407 123L252 171L130 123L0 161V208Z" fill="#A9B573"/>
    <path d="M0 280L121 240L258 287L427 231L586 280L714 240L882 292L1034 241L1188 285L1344 244L1494 269L1600 246V190L1497 224L1340 194L1185 241L1020 191L858 239L726 198L553 245L415 191L252 243L131 197L0 237V280Z" fill="#6D8B49"/>
    <path d="M0 360H1600V248L1494 286L1344 260L1188 305L1034 260L882 310L714 258L586 302L427 252L258 306L121 258L0 304V360Z" fill="#47653D"/>
  </g>
  <path d="M1114 0C1098 22 1101 53 1118 72C1139 96 1182 96 1208 119C1233 141 1238 180 1257 209C1281 244 1321 272 1366 282C1437 299 1515 272 1578 238C1585 234 1593 230 1600 226V0H1114Z" fill="#456B3F" opacity="0.9"/>
  <path d="M1012 172C958 186 925 232 889 268C866 291 842 314 808 330C771 347 729 354 691 360H905C965 337 1016 294 1053 241C1066 222 1078 202 1077 180C1076 172 1071 163 1063 160C1045 154 1028 167 1012 172Z" fill="#375A35" opacity="0.75"/>
  <path d="M0 177C26 189 53 201 82 207C117 214 154 211 188 220C235 232 274 264 290 308C297 326 299 344 304 360H0V177Z" fill="#2E4930" opacity="0.9"/>
  <path d="M101 38L133 61L120 94L84 93L72 60L101 38Z" fill="#5D4636"/>
  <path d="M97 24L121 39L95 54L74 40L97 24Z" fill="#D8C18C"/>
  <rect x="94" y="54" width="6" height="19" fill="#E8D7AB"/>
  <path d="M104 54H109V73H104V54Z" fill="#E8D7AB"/>
  <path d="M392 118L446 147L438 198H377L361 149L392 118Z" fill="#775538"/>
  <path d="M395 96L438 121L396 143L356 120L395 96Z" fill="#C7A26D"/>
  <rect x="392" y="143" width="12" height="43" fill="#E9D8AA"/>
  <rect x="413" y="143" width="10" height="43" fill="#E9D8AA"/>
  <path d="M648 76L684 96L674 136H632L618 101L648 76Z" fill="#6A4B31"/>
  <path d="M647 59L676 76L647 95L620 77L647 59Z" fill="#D3B47B"/>
  <rect x="644" y="95" width="8" height="32" fill="#EFE2BA"/>
  <path d="M901 155L968 193L954 254H874L853 194L901 155Z" fill="#644A2F"/>
  <path d="M899 129L955 160L899 190L847 160L899 129Z" fill="#D1B07A"/>
  <rect x="894" y="188" width="13" height="50" fill="#F3E2B8"/>
  <rect x="919" y="188" width="11" height="50" fill="#F3E2B8"/>
  <path d="M1291 81L1338 108L1328 156H1270L1256 112L1291 81Z" fill="#6A4F33"/>
  <path d="M1289 61L1329 83L1289 105L1251 84L1289 61Z" fill="#D8BA86"/>
  <rect x="1285" y="104" width="10" height="37" fill="#F3E2B8"/>
  <path d="M510 222C534 216 559 229 570 250C582 273 576 301 561 322C546 343 524 360 502 360H424C424 342 428 324 437 308C452 278 478 231 510 222Z" fill="#28442F"/>
  <path d="M1103 252C1115 229 1141 216 1167 220C1192 224 1214 245 1220 270C1225 293 1217 318 1200 337C1194 344 1188 352 1180 360H1070C1077 319 1086 280 1103 252Z" fill="#2B4A31"/>
  <path d="M1453 88C1481 79 1515 94 1528 119C1544 150 1535 191 1507 212C1481 231 1441 232 1411 216C1386 203 1368 177 1370 149C1373 119 1390 97 1415 91C1427 89 1440 92 1453 88Z" fill="#F2F1E7" opacity="0.9"/>
  <path d="M1491 68C1510 60 1533 64 1549 78C1564 90 1573 110 1571 129C1569 147 1557 164 1541 174C1519 188 1486 186 1467 166C1450 149 1441 123 1447 100C1451 86 1459 76 1471 72C1478 69 1484 71 1491 68Z" fill="#FBFAF2" opacity="0.95"/>
  <path d="M1460 112C1477 106 1498 112 1508 126C1518 141 1516 162 1505 176C1495 190 1477 197 1459 196C1440 195 1422 184 1415 167C1408 151 1411 131 1423 120C1433 111 1447 116 1460 112Z" fill="#E9EEF3" opacity="0.95"/>
  <path d="M1038 29C1048 24 1060 26 1068 34C1076 43 1078 55 1074 66C1070 77 1060 85 1049 87C1037 89 1024 84 1017 74C1011 66 1009 55 1012 45C1016 37 1029 34 1038 29Z" fill="#D9E6EF" opacity="0.55"/>
  <path d="M932 58L1005 66" stroke="#274C7A" stroke-width="12" stroke-linecap="round" opacity="0.45"/>
  <path d="M1005 66L1048 112" stroke="#274C7A" stroke-width="12" stroke-linecap="round" opacity="0.45"/>
  <path d="M1048 112L1122 129" stroke="#274C7A" stroke-width="12" stroke-linecap="round" opacity="0.45"/>
  <path d="M1122 129L1180 176" stroke="#274C7A" stroke-width="12" stroke-linecap="round" opacity="0.45"/>
  <path d="M1180 176L1248 191" stroke="#274C7A" stroke-width="12" stroke-linecap="round" opacity="0.45"/>
  <path d="M1248 191L1310 241" stroke="#274C7A" stroke-width="12" stroke-linecap="round" opacity="0.45"/>
  <path d="M1310 241L1396 257" stroke="#274C7A" stroke-width="12" stroke-linecap="round" opacity="0.45"/>
</svg>
