<?xml version="1.0" encoding="UTF-8"?>
<svg id="Layer_2" data-name="Layer 2" xmlns="http://www.w3.org/2000/svg" viewBox="0 0 1200 1200">
  <defs>
    <style>
      .cls-1 {
        fill: #fff;
      }

      .cls-2 {
        fill: #00b7b5;
      }

      .cls-3 {
        fill: #006c81;
      }
    </style>
  </defs>
  <g id="Layer_1-2" data-name="Layer 1">
    <g>
      <rect class="cls-1" x="0" y="0" width="1200" height="1200" rx="100" ry="100"/>
      <g>
        <path class="cls-3" d="M436.19,440.39c0,30.3-27.67,54.12-59.13,47.57-18.39-3.83-33.27-18.7-37.1-37.1-6.55-31.45,17.27-59.13,47.57-59.13,26.88,0,48.66,21.78,48.66,48.66h0Z"/>
        <path class="cls-2" d="M288.14,440.39c0,30.3-27.67,54.12-59.13,47.57-18.39-3.83-33.27-18.7-37.1-37.1-6.55-31.45,17.27-59.13,47.57-59.13,26.88,0,48.66,21.78,48.66,48.66h0Z"/>
        <path class="cls-3" d="M449.57,696.62c-.05.07.19,3.1.19,3.75.03,16.85,0,29.25-.08,37.21-.25,24.96-11.35,45.7-30.32,61.33-11.35,9.36-24.49,14.95-39.4,16.77-2.72.33-7.14.5-13.26.51-22.41,0-34.45,0-36.1,0-.45,0-.81-.36-.81-.81,0-60.43,0-129.56-.04-207.39,0-12.6.38-21.11,1.14-25.53,3.4-19.64,14.21-36.86,29.78-49.36,9.21-7.4,20.01-12.38,32.4-14.96,5.32-1.11,13.81-1.64,25.44-1.6,13.5.05,23.69.08,30.59.1l.59.63v64.55s.02.06.05.06c.03,0,.07-.02.08-.05.22-.62.26-1.39.15-2.29-.1-.78.5-1.46,1.28-1.46h34.5c.16-.16.26-.25.42-.41.26-5.47.39-10.54,1.05-15.69,4.37-33.74,22.75-62.22,49.85-82.3,18.69-13.84,40.12-21.24,64.29-22.2,15.1-.59,29.48,1.42,43.13,6.04,18.36,6.21,34.47,16.47,48.33,30.75,14.5,14.95,24.37,32.59,29.62,52.94.1.41-.25.78-.66.7-.72-.14-1.51-.21-2.39-.2-22.26.07-57.42.07-105.47-.02-7.34-.02-12.34.35-15.03,1.11-12.82,3.6-22.19,15.18-22.18,28.93l.32.33c37.76-.05,106.19-.06,145.72,0,14.01.02-3.92,4.79-.8,19.87.58,2.79.88,5.96.89,9.52.05,9.06.05,29.92.02,62.56,0,6.81-2.04,14.51-6.68,19.54-6.54,7.09-15.58,8-24.99,8-142.89,0-222.75,0-239.58,0-.84,0-1.37-.3-1.6-.89-.07-.18-.31-.2-.42-.05h0Z"/>
        <path class="cls-3" d="M835.71,578.06c.3,0,.55-.25.55-.55-.07-6.23.5-12.99,1.71-20.28,4.54-27.45,18.97-51.3,39.62-69.8,19.78-17.72,43.2-27.42,70.26-29.11,28.43-1.77,56.08,5.41,79.02,22.62,17.07,12.8,30.95,29.31,39.63,48.72,2.45,5.47,4.53,11.43,6.23,17.86.62,2.34,1.36,6.23,2.23,11.66,1.71,10.74,1.76,22.69.76,32.72-3.13,31.58-18.45,58.26-42.52,78.49-21.81,18.32-47.18,27.56-76.12,27.73-3.03.02-51.35.03-144.96.05-14.73,0-23.82-.29-27.27-.9-9.64-1.69-18.2-4.64-25.68-8.86-11.37-6.41-20.84-15.28-28.42-26.59-8.67-12.94-12.96-27.5-12.86-43.67.08-11.56.07-24.71-.03-39.46.23-.24.37-.39.61-.63h117.24M956.16,607.81c18.09,0,32.39-16.24,29.1-34.94-2.09-11.89-11.85-21.65-23.74-23.74-18.69-3.28-34.94,11.02-34.94,29.1,0,16.33,13.24,29.58,29.58,29.58h0Z"/>
        <path class="cls-3" d="M299.49,666.58c0,38.94-.02,62.42-.05,70.45-.05,16.54-4.8,31.5-14.22,44.88-14.85,21.08-37.63,33.93-63.79,34.2-14.01.15-27.73.17-41.17.05-.4,0-.72-.32-.72-.72-.05-4.94-.06-54.7-.04-149.26,0-38.93.02-62.42.05-70.45.05-16.54,4.8-31.51,14.22-44.89,14.85-21.08,37.63-33.93,63.79-34.2,14.01-.15,27.73-.16,41.17-.05.4,0,.72.33.72.73.05,4.94.06,54.69.04,149.25h0Z"/>
      </g>
    </g>
  </g>
</svg>