<?xml version="1.0" encoding="UTF-8"?>
<svg id="Layer_2" data-name="Layer 2" xmlns="http://www.w3.org/2000/svg" viewBox="0 0 128 128">
  <defs>
    <style>
      .cls-1 {
        fill: #fff;
      }

      .cls-2 {
        fill: #00b7b5;
      }

      .cls-3 {
        fill: #006c81;
      }
    </style>
  </defs>
  <g id="Layer_1-2" data-name="Layer 1">
    <g>
      <rect class="cls-1" x="0" y="0" width="128" height="128" rx="64" ry="64"/>
      <g>
        <path class="cls-3" d="M46.53,46.98c0,3.23-2.95,5.77-6.31,5.07-1.96-.41-3.55-2-3.96-3.96-.7-3.36,1.84-6.31,5.07-6.31,2.87,0,5.19,2.32,5.19,5.19h0Z"/>
        <path class="cls-2" d="M30.74,46.98c0,3.23-2.95,5.77-6.31,5.07-1.96-.41-3.55-2-3.96-3.96-.7-3.36,1.84-6.31,5.07-6.31,2.87,0,5.19,2.32,5.19,5.19h0Z"/>
        <path class="cls-3" d="M47.95,74.31s.02.33.02.4c0,1.8,0,3.12,0,3.97-.03,2.66-1.21,4.87-3.23,6.54-1.21,1-2.61,1.59-4.2,1.79-.29.04-.76.05-1.41.05-2.39,0-3.67,0-3.85,0-.05,0-.09-.04-.09-.09,0-6.45,0-13.82,0-22.12,0-1.34.04-2.25.12-2.72.36-2.1,1.52-3.93,3.18-5.27.98-.79,2.13-1.32,3.46-1.6.57-.12,1.47-.17,2.71-.17,1.44,0,2.53,0,3.26.01l.06.07v6.88s0,0,0,0c0,0,0,0,0,0,.02-.07.03-.15.02-.24-.01-.08.05-.16.14-.16h3.68s.03-.03.05-.04c.03-.58.04-1.12.11-1.67.47-3.6,2.43-6.64,5.32-8.78,1.99-1.48,4.28-2.27,6.86-2.37,1.61-.06,3.14.15,4.6.64,1.96.66,3.68,1.76,5.16,3.28,1.55,1.59,2.6,3.48,3.16,5.65.01.04-.03.08-.07.07-.08-.01-.16-.02-.25-.02-2.37,0-6.12,0-11.25,0-.78,0-1.32.04-1.6.12-1.37.38-2.37,1.62-2.37,3.09l.03.04c4.03,0,11.33,0,15.54,0,1.49,0-.42.51-.09,2.12.06.3.09.64.1,1.02,0,.97,0,3.19,0,6.67,0,.73-.22,1.55-.71,2.08-.7.76-1.66.85-2.67.85-15.24,0-23.76,0-25.56,0-.09,0-.15-.03-.17-.1,0-.02-.03-.02-.04,0h0Z"/>
        <path class="cls-3" d="M89.14,61.66s.06-.03.06-.06c0-.66.05-1.39.18-2.16.48-2.93,2.02-5.47,4.23-7.45,2.11-1.89,4.61-2.92,7.49-3.1,3.03-.19,5.98.58,8.43,2.41,1.82,1.37,3.3,3.13,4.23,5.2.26.58.48,1.22.66,1.91.07.25.14.66.24,1.24.18,1.15.19,2.42.08,3.49-.33,3.37-1.97,6.21-4.54,8.37-2.33,1.95-5.03,2.94-8.12,2.96-.32,0-5.48,0-15.46,0-1.57,0-2.54-.03-2.91-.1-1.03-.18-1.94-.5-2.74-.95-1.21-.68-2.22-1.63-3.03-2.84-.92-1.38-1.38-2.93-1.37-4.66,0-1.23,0-2.64,0-4.21l.06-.07h12.51M101.99,64.83c1.93,0,3.45-1.73,3.1-3.73-.22-1.27-1.26-2.31-2.53-2.53-1.99-.35-3.73,1.18-3.73,3.1,0,1.74,1.41,3.15,3.15,3.15h0Z"/>
        <path class="cls-3" d="M31.95,71.1c0,4.15,0,6.66,0,7.52,0,1.76-.51,3.36-1.52,4.79-1.58,2.25-4.01,3.62-6.8,3.65-1.49.02-2.96.02-4.39,0-.04,0-.08-.03-.08-.08,0-.53,0-5.83,0-15.92,0-4.15,0-6.66,0-7.51,0-1.76.51-3.36,1.52-4.79,1.58-2.25,4.01-3.62,6.8-3.65,1.49-.02,2.96-.02,4.39,0,.04,0,.08.04.08.08,0,.53,0,5.83,0,15.92h0Z"/>
      </g>
    </g>
  </g>
</svg>