<?xml version="1.0" encoding="UTF-8"?>
<svg id="Layer_2" data-name="Layer 2" xmlns="http://www.w3.org/2000/svg" viewBox="0 0 64 64">
  <defs>
    <style>
      .cls-1 {
        fill: #fff;
      }

      .cls-2 {
        fill: #00b7b5;
      }

      .cls-3 {
        fill: #006c81;
      }
    </style>
  </defs>
  <g id="Layer_1-2" data-name="Layer 1">
    <g>
      <rect class="cls-1" x="0" y="0" width="64" height="64" rx="16" ry="16"/>
      <g>
        <path class="cls-3" d="M23.26,23.49c0,1.43-1.16,2.6-2.6,2.6s-2.6-1.16-2.6-2.6,1.16-2.6,2.6-2.6,2.6,1.16,2.6,2.6h0Z"/>
        <path class="cls-2" d="M15.37,23.49c0,1.43-1.16,2.6-2.6,2.6s-2.6-1.16-2.6-2.6,1.16-2.6,2.6-2.6,2.6,1.16,2.6,2.6h0Z"/>
        <path class="cls-3" d="M23.98,37.15s.01.17.01.2c0,.9,0,1.56,0,1.98-.01,1.33-.61,2.44-1.62,3.27-.61.5-1.31.8-2.1.89-.14.02-.38.03-.71.03-1.2,0-1.84,0-1.93,0-.02,0-.04-.02-.04-.04,0-3.22,0-6.91,0-11.06,0-.67.02-1.13.06-1.36.18-1.05.76-1.97,1.59-2.63.49-.39,1.07-.66,1.73-.8.28-.06.74-.09,1.36-.09.72,0,1.26,0,1.63,0,.02,0,.03.02.03.03v3.44s0,0,0,0c0,0,0,0,0,0,.01-.03.01-.07,0-.12,0-.04.03-.08.07-.08h1.84s.02,0,.02-.02c.01-.29.02-.56.06-.84.23-1.8,1.21-3.32,2.66-4.39,1-.74,2.14-1.13,3.43-1.18.81-.03,1.57.08,2.3.32.98.33,1.84.88,2.58,1.64.77.8,1.3,1.74,1.58,2.82,0,.02-.01.04-.04.04-.04,0-.08-.01-.13-.01-1.19,0-3.06,0-5.63,0-.39,0-.66.02-.8.06-.68.19-1.18.81-1.18,1.54,0,0,0,.02.02.02,2.01,0,5.66,0,7.77,0,.75,0-.21.26-.04,1.06.03.15.05.32.05.51,0,.48,0,1.6,0,3.34,0,.36-.11.77-.36,1.04-.35.38-.83.43-1.33.43-7.62,0-11.88,0-12.78,0-.04,0-.07-.02-.09-.05,0,0-.02-.01-.02,0h0Z"/>
        <path class="cls-3" d="M44.57,30.83s.03-.01.03-.03c0-.33.03-.69.09-1.08.24-1.46,1.01-2.74,2.11-3.72,1.05-.94,2.3-1.46,3.75-1.55,1.52-.09,2.99.29,4.21,1.21.91.68,1.65,1.56,2.11,2.6.13.29.24.61.33.95.03.12.07.33.12.62.09.57.09,1.21.04,1.74-.17,1.68-.98,3.11-2.27,4.19-1.16.98-2.52,1.47-4.06,1.48-.16,0-2.74,0-7.73,0-.79,0-1.27-.02-1.45-.05-.51-.09-.97-.25-1.37-.47-.61-.34-1.11-.81-1.52-1.42-.46-.69-.69-1.47-.69-2.33,0-.62,0-1.32,0-2.11,0-.02.01-.03.03-.03h6.25M51,32.42c.87,0,1.58-.71,1.58-1.58s-.71-1.58-1.58-1.58-1.58.71-1.58,1.58.71,1.58,1.58,1.58h0Z"/>
        <path class="cls-3" d="M15.97,35.55c0,2.08,0,3.33,0,3.76,0,.88-.26,1.68-.76,2.39-.79,1.12-2.01,1.81-3.4,1.82-.75,0-1.48,0-2.2,0-.02,0-.04-.02-.04-.04,0-.26,0-2.92,0-7.96,0-2.08,0-3.33,0-3.76,0-.88.26-1.68.76-2.39.79-1.12,2.01-1.81,3.4-1.82.75,0,1.48,0,2.2,0,.02,0,.04.02.04.04,0,.26,0,2.92,0,7.96h0Z"/>
      </g>
    </g>
  </g>
</svg>